<svg width="745" height="216" viewBox="0 0 745 216" fill="none" xmlns="http://www.w3.org/2000/svg">
<path d="M744.453 0.582397H0.582031V215.5H744.453V0.582397Z" fill="#E6E6E6"/>
<path d="M722.901 59.999H21.5527V216H722.901V59.999Z" fill="white"/>
<path d="M744.135 0H0V31.6136H744.135V0Z" fill="#2563EB"/>
<path d="M23.4922 22.0219C26.7282 22.0219 29.3515 19.3986 29.3515 16.1626C29.3515 12.9265 26.7282 10.3032 23.4922 10.3032C20.2561 10.3032 17.6328 12.9265 17.6328 16.1626C17.6328 19.3986 20.2561 22.0219 23.4922 22.0219Z" fill="white"/>
<path d="M45.7334 22.0219C48.9694 22.0219 51.5927 19.3986 51.5927 16.1626C51.5927 12.9265 48.9694 10.3032 45.7334 10.3032C42.4973 10.3032 39.874 12.9265 39.874 16.1626C39.874 19.3986 42.4973 22.0219 45.7334 22.0219Z" fill="white"/>
<path d="M67.9736 22.0219C71.2096 22.0219 73.8329 19.3986 73.8329 16.1626C73.8329 12.9265 71.2096 10.3032 67.9736 10.3032C64.7376 10.3032 62.1143 12.9265 62.1143 16.1626C62.1143 19.3986 64.7376 22.0219 67.9736 22.0219Z" fill="white"/>
<path d="M245.137 91.1595H107.918V215H245.137V91.1595Z" fill="#E6E6E6"/>
<path d="M441 91H304V215H441V91Z" fill="#E6E6E6"/>
<path d="M636.851 91.1595H499.633V215.5H636.851V91.1595Z" fill="#E6E6E6"/>
<path d="M161.218 172.177C174.028 172.177 184.413 161.792 184.413 148.981C184.413 136.171 174.028 125.786 161.218 125.786C148.407 125.786 138.022 136.171 138.022 148.981C138.022 161.792 148.407 172.177 161.218 172.177Z" fill="#FFB9B9"/>
<path d="M152.157 166.74C152.157 166.74 155.057 180.512 155.057 181.962C155.057 183.412 168.829 189.935 168.829 189.935L181.151 187.761L185.5 174.714C185.5 174.714 178.252 163.841 178.252 159.492L152.157 166.74Z" fill="#FFB9B9"/>
<path d="M141.103 130.294C141.103 130.294 148.467 114.337 162.582 118.02C176.697 121.702 184.675 127.225 185.289 132.748C185.903 138.272 184.982 146.557 184.982 146.557C184.982 146.557 183.448 135.203 173.629 137.658C163.81 140.113 148.467 138.272 148.467 138.272L146.012 160.365C146.012 160.365 143.251 156.376 140.182 158.831C137.114 161.286 131.283 135.203 141.103 130.294Z" fill="#2F2E41"/>
<path d="M230.494 206L228.988 199.355C226.082 190.656 218.84 183.413 218.84 183.413L183.094 170.842H183.085C183.015 174.002 181.95 177.059 180.041 179.578C178.132 182.097 175.477 183.949 172.454 184.871C161.577 188.487 154.089 176.299 154.089 176.299L123.872 199.355L118.837 206H118.831H230.494Z" fill="#2563EB"/>
<path d="M356.551 183.736C373.939 183.736 388.035 168.773 388.035 150.315C388.035 131.858 373.939 116.895 356.551 116.895C339.164 116.895 325.068 131.858 325.068 150.315C325.068 168.773 339.164 183.736 356.551 183.736Z" fill="#2F2E41"/>
<path d="M384.485 200.89C393.632 200.89 401.048 193.475 401.048 184.327C401.048 175.18 393.632 167.765 384.485 167.765C375.338 167.765 367.923 175.18 367.923 184.327C367.923 193.475 375.338 200.89 384.485 200.89Z" fill="#2F2E41"/>
<path d="M372.95 162.146L381.822 185.214L359.345 194.679L357.371 190.206L350.472 174.568L372.95 162.146Z" fill="#9F616A"/>
<path d="M355.204 177.229C366.148 177.229 375.02 168.357 375.02 157.413C375.02 146.469 366.148 137.598 355.204 137.598C344.26 137.598 335.389 146.469 335.389 157.413C335.389 168.357 344.26 177.229 355.204 177.229Z" fill="#9F616A"/>
<path d="M339.009 155.24C351.464 146.929 355.187 144.942 369.463 148.153L370.319 127.326L333.428 135.065L339.009 155.24Z" fill="#2F2E41"/>
<path d="M418.5 205.5L418 205C417.5 204 417.5 204 417 203.5C415 201.5 405.976 196.258 398.26 193.525H398.251C393.35 191.785 389.515 190.537 389.515 190.537L380.186 180.945C377.836 183.586 372.871 185.627 368.153 187.066C364.54 188.16 360.865 189.036 357.148 189.69H357.139L355.208 195.857L344.5 205.5L344 206L418.5 205.5Z" fill="#575A89"/>
<path d="M593.295 205.422H544.65L544.495 203.864L544.176 200.776L542.873 187.868L541.243 201.733L540.508 206H537.5H536H533.5H530.5L531.769 158.252C531.634 150.22 534.175 142.371 538.993 135.943C541.667 132.461 545.118 129.652 549.071 127.74C553.023 125.828 557.368 124.865 561.758 124.929C566.237 124.915 570.658 125.938 574.676 127.918C578.694 129.898 582.198 132.782 584.914 136.344C589.893 142.837 592.558 150.808 592.485 158.99L593.295 189.672V205.422Z" fill="#2F2E41"/>
<path d="M561.751 176.39C573.201 176.39 582.483 167.108 582.483 155.658C582.483 144.209 573.201 134.927 561.751 134.927C550.301 134.927 541.02 144.209 541.02 155.658C541.02 167.108 550.301 176.39 561.751 176.39Z" fill="#FBBEBE"/>
<path d="M551.386 170.467C551.386 170.467 557.309 190.458 551.386 196.382C545.462 202.305 543.981 204.526 543.981 204.526L555 206H567L590.628 191.199C590.628 191.199 569.896 185.275 575.079 168.986L551.386 170.467Z" fill="#FBBEBE"/>
<path d="M612.505 206C612.505 206 613.586 207.488 611.364 200.084C609.143 192.68 606.922 192.68 606.922 192.68L606.922 192.678C604.307 190.063 598.022 189.599 593.294 189.672C589.978 189.708 587.427 190 587.427 190L564 206H559L547.718 200.175V200.166C546.52 200.259 545.334 200.463 544.174 200.776C543.177 201.031 542.197 201.35 541.241 201.733C537.122 203.493 534.505 206 534.505 206C541.242 206 541.236 206 541.241 206H559H574H561.5H587.427H601.005H612.505Z" fill="#2563EB"/>
<path d="M544.352 152.327C557.742 145.108 563.242 145.414 579.892 152.327L584.334 141.503C584.332 139.465 583.521 137.511 582.08 136.07C580.639 134.629 578.685 133.819 576.647 133.816H546.856C544.818 133.819 542.864 134.629 541.423 136.07C539.982 137.511 539.171 139.465 539.169 141.503L544.352 152.327Z" fill="#2F2E41"/>
</svg>