<svg xmlns="http://www.w3.org/2000/svg" viewBox="0 0 687.046 637.414" width="687.046" height="637.414" data-name="Layer 1"><polygon fill="#a0616a" points="56.203,611.806 69.281,615.24 88.753,566.427 69.45,561.359 56.203,611.806" /><path fill="#2f2e41" transform="translate(-256.477 -131.293)" d="M 308.636 756.621 l 40.2185 10.5612 l 0.13358 -0.50863 a 16.1858 16.1858 0 0 0 -11.5428 -19.7651 l -0.001 -0.00025 l -5.8826 -7.50275 l -15.1707 1.9743 l -3.51081 -0.92193 Z" /><polygon fill="#a0616a" points="123.249,621.59 136.771,621.589 143.204,569.432 123.246,569.433 123.249,621.59" /><path fill="#2f2e41" transform="translate(-256.477 -131.293)" d="M 379.25 766.989 l 41.5821 -0.00157 v -0.52587 a 16.1858 16.1858 0 0 0 -16.1849 -16.1847 h -0.001 l -7.5955 -5.76234 l -14.1715 5.76322 l -3.62984 0.00012 Z" /><path fill="#2f2e41" transform="translate(-256.477 -131.293)" d="M 345.905 503.291 c -3.26644 4.08306 -1.63322 17.9655 -1.63322 17.9655 s -5.71628 44.9137 -3.26645 48.9967 s -1.63322 7.34951 -4.08306 13.0658 s -4.89967 19.5987 -4.89967 19.5987 c -13.8824 11.4326 -13.0658 63.6957 -13.0658 63.6957 l -4.89967 46.5469 c 1.63322 4.89967 24.4984 5.71628 27.7648 4.89967 S 376.937 602.101 376.937 602.101 s -1.63323 111.059 -1.63323 115.959 s 22.0485 2.44983 26.9482 2.44983 s 35.9309 -200.07 35.9309 -200.07 V 509.007 l -4.08306 -5.71628 S 349.172 499.208 345.905 503.291 Z" /><circle fill="#a0616a" cx="125.359" cy="197.243" r="25.315" /><path fill="#3f3d56" transform="translate(-256.477 -131.293)" d="M 347.825 521.351 l -0.13808 -0.19368 c -7.37428 -10.3242 3.71666 -35.1329 5.38943 -38.7292 v 0 a 9.02883 9.02883 0 0 1 -6.18013 -9.64286 l 0.7211 -6.12973 l 0.75165 -6.01246 l -5.38488 -5.38489 l -0.01514 -0.13429 l -3.09891 -27.1155 l -4.50573 -18.0098 a 39.5395 39.5395 0 0 1 11.2226 -38.3184 l 10.4149 -1.65378 l 12.6574 -12.1956 H 390.071 l 6.99866 6.68666 c 13.7596 11.2788 17.0261 6.37914 32.5417 27.611 L 418.502 421.397 l 6.20955 43.1684 l 0.00379 7.81235 l 3.23418 3.59433 a 11.1848 11.1848 0 0 1 2.65317 9.675 l -0.42532 2.12651 h 0 a 11.1848 11.1848 0 0 1 6.53076 7.93681 l 1.13593 5.30052 c 0.97182 1.28239 7.3864 9.83541 7.3864 12.1736 c 0 0.351 -0.25913 0.69037 -0.81521 1.06681 c -4.37146 2.96008 -28.5333 8.99486 -39.227 4.7157 c -11.3909 -4.55455 -56.6716 2.278 -57.1279 2.34764 Z" /><path fill="#a0616a" transform="translate(-256.477 -131.293)" d="M 334.964 418.661 l 21.0488 -4.12045 c 7.78431 11.6251 11.9634 43.4128 11.9634 43.4128 l 23.2717 48.2626 a 9.46969 9.46969 0 1 1 -14.3741 7.61347 l -30.3524 -57.1824 Z" /><path fill="#3f3d56" transform="translate(-256.477 -131.293)" d="M 334.847 423.655 l -0.59844 -31.2846 l 9.90546 -13.2517 a 17.4131 17.4131 0 0 1 17.1413 -6.63434 h 0 a 17.372 17.372 0 0 1 13.8963 19.2213 c -1.68127 13.2471 -5.49836 29.825 -14.1341 33.5757 l -0.08751 0.038 l 8.95018 31.3014 l -33.1913 4.63652 Z" /><path fill="#a0616a" transform="translate(-256.477 -131.293)" d="M 459.858 420.89 s -25.2602 -19.7445 -38.9603 -22.5808 l -12.1258 17.6918 L 441.566 436.099 l 63.8476 18.4609 a 9.46983 9.46983 0 1 0 4.87015 -15.5551 Z" /><path fill="#3f3d56" transform="translate(-256.477 -131.293)" d="M 415.417 424.858 L 389.092 407.944 l -5.49692 -15.6048 a 17.4131 17.4131 0 0 1 4.028 -17.9336 h 0 a 17.372 17.372 0 0 1 23.7033 -0.84774 c 10.0702 8.76946 23.0478 11.7086 21.3578 20.9707 l 4.84825 0.708 l 24.7928 18.8291 L 447.705 444.222 Z" /><path fill="#2f2e41" transform="translate(-256.477 -131.293)" d="M 353.122 311.902 c 2.84259 -4.39766 8.17688 -7.32857 13.3481 -6.505 A 18.228 18.228 0 0 1 397.012 294.765 a 5.66811 5.66811 0 0 1 5.543 -0.55474 a 11.6874 11.6874 0 0 1 4.50333 3.61475 a 26.2303 26.2303 0 0 1 3.67037 26.6847 c 0.632 -2.29752 -1.67051 -4.459 -3.99694 -4.97454 c -2.32622 -0.51557 -4.76649 -0.02781 -7.12561 -0.36355 c -3.02362 -0.43023 -5.74161 -2.18427 -8.77 -2.579 a 19.9652 19.9652 0 0 0 -7.58655 0.97491 a 20.5707 20.5707 0 0 1 -7.58357 1.01837 c -2.54892 -0.30264 -5.83212 9.35675 -5.78806 16.1602 c 0.00838 1.28932 -0.25718 2.94467 -1.51719 3.2182 c -1.55168 0.33694 -2.45083 -1.80468 -3.92775 -2.38823 a 2.73236 2.73236 0 0 0 -3.35138 1.78216 a 4.45469 4.45469 0 0 0 0.85051 3.98915 a 13.1634 13.1634 0 0 0 3.19148 2.76853 l -0.60827 0.5059 c -1.01179 1.33666 -3.11054 1.39458 -4.56892 0.5676 a 9.8609 9.8609 0 0 1 -3.2804 -3.73517 c -2.69805 -4.48757 -5.06475 -9.269 -6.01694 -14.418 S 350.28 316.3 353.122 311.902 Z" /><path fill="#cacaca" transform="translate(-256.477 -131.293)" d="M 942.53 167.845 H 310.206 a 1.01559 1.01559 0 0 1 0 -2.03069 H 942.53 a 1.01559 1.01559 0 0 1 0 2.03069 Z" /><ellipse fill="#3f3d56" cx="76.0846" cy="11.1688" rx="10.9253" ry="11.1688" /><ellipse fill="#3f3d56" cx="113.827" cy="11.1688" rx="10.9253" ry="11.1688" /><ellipse fill="#3f3d56" cx="151.569" cy="11.1688" rx="10.9253" ry="11.1688" /><path fill="#3f3d56" transform="translate(-256.477 -131.293)" d="M 919.913 134.061 h -26.81 a 2.0304 2.0304 0 0 0 0 4.06 h 26.81 a 2.0304 2.0304 0 0 0 0 -4.06 Z" /><path fill="#3f3d56" transform="translate(-256.477 -131.293)" d="M 919.913 141.681 h -26.81 a 2.0304 2.0304 0 0 0 0 4.06 h 26.81 a 2.0304 2.0304 0 0 0 0 -4.06 Z" /><path fill="#3f3d56" transform="translate(-256.477 -131.293)" d="M 919.913 149.291 h -26.81 a 2.0304 2.0304 0 0 0 0 4.06 h 26.81 a 2.0304 2.0304 0 0 0 0 -4.06 Z" /><path fill="#f0f0f0" transform="translate(-256.477 -131.293)" d="M 885.853 208.182 H 366.883 a 10.8562 10.8562 0 0 0 -10.8401 10.84 v 1.7481 a 10.8563 10.8563 0 0 0 10.8401 10.8401 H 885.853 a 10.8563 10.8563 0 0 0 10.8401 -10.8401 v -1.7481 A 10.8562 10.8562 0 0 0 885.853 208.182 Z" /><path fill="#fff" transform="translate(-256.477 -131.293)" d="M 429.513 224.222 H 380.113 a 4.17154 4.17154 0 1 1 0 -8.34308 H 429.513 C 434.893 215.804 434.946 224.298 429.513 224.222 Z" /><path fill="#fff" transform="translate(-256.477 -131.293)" d="M 577.291 224.222 H 527.891 a 4.17154 4.17154 0 0 1 0 -8.34308 h 49.4001 C 582.671 215.804 582.724 224.298 577.291 224.222 Z" /><path fill="#fff" transform="translate(-256.477 -131.293)" d="M 725.069 224.222 H 675.669 a 4.17154 4.17154 0 0 1 0 -8.34308 h 49.4001 C 730.448 215.804 730.502 224.298 725.069 224.222 Z" /><path fill="#2563eb" transform="translate(-256.477 -131.293)" d="M 865.187 224.672 H 815.787 a 4.17153 4.17153 0 1 1 0 -8.34307 h 49.4001 C 870.567 216.254 870.621 224.748 865.187 224.672 Z" /><rect fill="#fff" x="529.834" y="76.8894" width="1.80217" height="23.4282" /><path fill="#2563eb" transform="translate(-256.477 -131.293)" d="M 527.204 436.211 c -0.07368 0 -0.14735 -0.00145 -0.22175 -0.00435 a 5.3906 5.3906 0 0 1 -4.33476 -2.46534 a 60.8971 60.8971 0 0 0 -12.8199 -13.8869 c -3.00864 -2.40473 -6.15264 -4.6407 -9.19285 -6.80336 c -7.8435 -5.577 -15.2301 -10.8296 -19.3304 -18.0874 c -8.9399 -15.826 1.58815 -37.8693 16.6284 -47.7549 c 16.8698 -11.0873 39.0593 -12.8264 60.5251 -13.0543 q 3.34634 -0.03539 6.69667 -0.03521 h 0 A 638.494 638.494 0 0 1 680.465 344.663 c 12.6486 2.3336 25.8884 5.19235 36.5279 12.13 c 10.5763 6.89664 17.0048 17.7571 16.3776 27.6693 c -0.91565 14.4701 -16.255 25.2823 -30.2228 28.1091 c -13.3135 2.69217 -27.1441 0.87283 -41.7863 -1.05393 c -3.23256 -0.425 -6.57472 -0.86485 -9.87986 -1.247 c -35.92 -4.15185 -103.398 8.64519 -106.253 9.19212 l -2.83225 0.54221 l -10.9893 14.1417 A 5.27377 5.27377 0 0 1 527.204 436.211 Z" /><path fill="#fff" transform="translate(-256.477 -131.293)" d="M 687.16 365.621 H 535.338 a 3.3033 3.3033 0 0 1 0 -6.6066 H 687.16 a 3.3033 3.3033 0 0 1 0 6.6066 Z" /><path fill="#fff" transform="translate(-256.477 -131.293)" d="M 687.16 385.897 H 535.338 a 3.3033 3.3033 0 1 1 -0.0069 -6.6066 H 687.16 a 3.3033 3.3033 0 0 1 0 6.6066 Z" /><path fill="#fff" transform="translate(-256.477 -131.293)" d="M 553.031 406.173 H 535.338 a 3.3033 3.3033 0 0 1 0 -6.6066 h 17.6925 a 3.3033 3.3033 0 0 1 0 6.6066 Z" /><path fill="#f2f2f2" transform="translate(-256.477 -131.293)" d="M 798.323 541.796 l -8.75345 -11.2644 l -2.256 -0.4319 c -2.27393 -0.43564 -56.023 -10.629 -84.6347 -7.3219 c -2.63268 0.3044 -5.29485 0.65477 -7.86972 0.99329 c -11.6631 1.53474 -22.6798 2.98392 -33.2845 0.8395 c -11.126 -2.25168 -23.3444 -10.864 -24.0737 -22.3901 c -0.49954 -7.89545 4.621 -16.5463 13.0455 -22.0397 c 8.47478 -5.52612 19.0208 -7.80323 29.096 -9.662 a 508.586 508.586 0 0 1 91.8496 -8.39845 h 0 q 2.669 0 5.33417 0.028 c 17.0984 0.18154 34.7733 1.56683 48.2108 10.3983 c 11.9802 7.87435 20.3662 25.4327 13.2452 38.0388 c -3.26606 5.78109 -9.14978 9.965 -15.3975 14.4073 c -2.42166 1.72265 -4.926 3.5037 -7.32249 5.41916 a 48.5073 48.5073 0 0 0 -10.2116 11.0615 a 4.29382 4.29382 0 0 1 -3.45281 1.96374 c -0.05926 0.00231 -0.11795 0.00347 -0.17663 0.00347 A 4.20077 4.20077 0 0 1 798.323 541.796 Z" /><path fill="#fff" transform="translate(-256.477 -131.293)" d="M 674.26 487.212 H 795.192 a 2.63122 2.63122 0 0 0 0 -5.26243 H 674.26 a 2.63122 2.63122 0 0 0 0 5.26243 Z" /><path fill="#fff" transform="translate(-256.477 -131.293)" d="M 674.26 503.363 H 795.192 a 2.63122 2.63122 0 1 0 0.0055 -5.26243 H 674.26 a 2.63122 2.63122 0 0 0 0 5.26243 Z" /><path fill="#fff" transform="translate(-256.477 -131.293)" d="M 781.099 519.513 H 795.192 a 2.63122 2.63122 0 0 0 0 -5.26244 H 781.099 a 2.63122 2.63122 0 0 0 0 5.26244 Z" /><circle fill="#fff" cx="272.602" cy="311.891" r="16.0569" /><path fill="#3f3d56" transform="translate(-256.477 -131.293)" d="M 529.079 459.437 a 16.2529 16.2529 0 1 1 16.2529 -16.253 A 16.2714 16.2714 0 0 1 529.079 459.437 Z" /><path fill="#fff" transform="translate(-256.477 -131.293)" d="M 527.877 449.601 c -0.03423 0 -0.06846 -0.00111 -0.10269 -0.00278 a 2.09979 2.09979 0 0 1 -1.55654 -0.80874 l -2.68338 -3.44983 a 2.10061 2.10061 0 0 1 0.36819 -2.94832 l 0.09657 -0.07514 a 2.10042 2.10042 0 0 1 2.94888 0.36847 a 1.53224 1.53224 0 0 0 2.32048 0.113 l 5.4483 -5.75193 a 2.10377 2.10377 0 0 1 2.97031 -0.08071 l 0.08934 0.08516 a 2.1004 2.1004 0 0 1 0.08015 2.97 l -8.45507 8.92457 A 2.09847 2.09847 0 0 1 527.877 449.601 Z" /><circle fill="#fff" cx="546.168" cy="418.377" r="16.0569" /><path fill="#e6e6e6" transform="translate(-256.477 -131.293)" d="M 802.645 565.923 a 16.2529 16.2529 0 1 1 16.2529 -16.253 A 16.2714 16.2714 0 0 1 802.645 565.923 Z" /><path fill="#fff" transform="translate(-256.477 -131.293)" d="M 801.443 556.087 c -0.03423 0 -0.06846 -0.00111 -0.1027 -0.00278 a 2.09977 2.09977 0 0 1 -1.55653 -0.80874 l -2.68338 -3.44982 a 2.10062 2.10062 0 0 1 0.36819 -2.94833 l 0.09657 -0.07514 a 2.10042 2.10042 0 0 1 2.94888 0.36847 a 1.53223 1.53223 0 0 0 2.32047 0.113 l 5.44831 -5.75193 a 2.10377 2.10377 0 0 1 2.97031 -0.08071 l 0.08933 0.08516 a 2.10039 2.10039 0 0 1 0.08015 2.97 l -8.45507 8.92456 A 2.09846 2.09846 0 0 1 801.443 556.087 Z" /><path fill="#f0f0f0" transform="translate(-256.477 -131.293)" d="M 505.876 751.222 l -7.71 -12.39 l -1.54 7.08008 c -0.27 1.24 -0.54 2.5 -0.79 3.75 c -2.19 -1.87012 -4.52 -3.6001 -6.79981 -5.26 q -10.5 -7.62012 -20.9902 -15.26 l 2.18994 12.7 c 1.3501 7.82007 2.76025 15.8 6.1001 22.9499 c 0.37011 0.81006 0.77 1.61011 1.20019 2.39014 h 32.54 a 10.4876 10.4876 0 0 0 0.54 -2.24012 a 0.77469 0.77469 0 0 0 0.00976 -0.15 C 511.137 759.942 508.456 755.372 505.876 751.222 Z" /><path fill="#cacaca" transform="translate(-256.477 -131.293)" d="M 533.418 768.4 l -275.75 0.30733 a 1.19069 1.19069 0 0 1 0 -2.38137 l 275.75 -0.30733 a 1.19069 1.19069 0 1 1 0 2.38137 Z" /></svg>